# xmcd
#
# Track frame offsets: 
#        150
#        15186
#        32409
#        49599
#        65133
#        75173
#        83920
#        100153
#        113344
#        127339
#        139385
#        149422
#
# Disc length: 2152 seconds
#
# Revision: 0
# Processed by: cddbd v1.5.2PL0 Copyright (c) Steve Scherf et al.
# Submitted via: ExactAudioCopy v1.1
#
DISCID=9608660c
DTITLE=Otis Blackwell - These Are My Songs!
DYEAR=1977
DGENRE=Rock
TTITLE0=All Shook Up
TTITLE1=Fever
TTITLE2=Back Trail
TTITLE3=Daddy Rollin' Stone
TTITLE4=Great Balls of Fire
TTITLE5=Don't Be Cruel
TTITLE6=Searchin'
TTITLE7=Let's Talk About Us
TTITLE8=Hey Little Girl
TTITLE9=Breathless
TTITLE10=Handy Man
TTITLE11=Return to Sender
EXTD=
EXTT0=
EXTT1=
EXTT2=
EXTT3=
EXTT4=
EXTT5=
EXTT6=
EXTT7=
EXTT8=
EXTT9=
EXTT10=
EXTT11=
PLAYORDER=
